<svg width="76" height="28" viewBox="0 0 76 28" fill="none" xmlns="http://www.w3.org/2000/svg">
  <g clip-path="url(#clip0_4410_205785)">
    <path d="M33.2129 8.66416V8.68521C33.0648 8.77996 32.959 8.97998 32.885 9.28528C32.8109 9.59058 32.7792 10.0327 32.7792 10.6223V12.7804C32.3454 13.0647 31.8164 13.2857 31.2134 13.4647C30.6104 13.6437 30.0391 13.7279 29.5207 13.7279C28.6214 13.7279 27.8174 13.5279 27.1192 13.1383C26.4209 12.7488 25.8708 12.2014 25.4793 11.5066C25.0879 10.8118 24.8975 10.0117 24.8975 9.11684C24.8975 8.12726 25.0985 7.264 25.5111 6.52708C25.9237 5.79015 26.495 5.23219 27.2249 4.84268C27.9655 4.45316 28.8119 4.26366 29.7852 4.26366C30.695 4.26366 31.5308 4.37947 32.2819 4.6216L32.483 6.75868H32.4618C31.7847 6.02176 30.8855 5.64277 29.7534 5.64277C28.8436 5.64277 28.1348 5.93754 27.6164 6.5376C27.1086 7.13767 26.8441 7.94829 26.8441 8.99051C26.8441 10.0327 27.098 10.8434 27.5952 11.4539C28.0925 12.0645 28.7801 12.3593 29.6582 12.3593C30.2084 12.3593 30.695 12.2646 31.1076 12.0751V9.93799C30.2189 9.95904 29.5736 10.1801 29.1504 10.6223H29.1293L29.3408 8.61152C29.6265 8.66416 30.166 8.68521 30.9489 8.68521H33.2341L33.2129 8.66416ZM35.7732 13.1805C35.0643 12.7699 34.5248 12.2119 34.1545 11.4961C33.7842 10.7802 33.5938 9.96957 33.5938 9.07473C33.5938 8.09567 33.7842 7.24295 34.1757 6.50602C34.5671 5.7691 35.1278 5.20061 35.8684 4.79004C36.609 4.37947 37.4765 4.17944 38.4709 4.17944C39.4019 4.17944 40.2166 4.37947 40.9254 4.76898C41.6342 5.1585 42.1843 5.71646 42.5758 6.43233C42.9672 7.1482 43.1577 7.96934 43.1577 8.89576C43.1577 9.82218 42.9566 10.7065 42.5441 11.4539C42.1314 12.2014 41.5602 12.7804 40.8196 13.191C40.079 13.6016 39.2221 13.8016 38.2594 13.8016C37.2966 13.8016 36.4714 13.6016 35.7626 13.191L35.7732 13.1805ZM39.8357 12.0119C40.2589 11.7277 40.5974 11.3381 40.8302 10.8118C41.0735 10.2959 41.1899 9.69585 41.1899 9.01157C41.1899 7.91671 40.936 7.05345 40.4282 6.44286C39.9203 5.83226 39.2221 5.52696 38.3228 5.52696C37.7515 5.52696 37.2543 5.66382 36.8417 5.94806C36.4185 6.23231 36.1011 6.63235 35.879 7.13767C35.6568 7.64299 35.5404 8.24306 35.5404 8.92735C35.5404 10.0222 35.7838 10.8749 36.281 11.4961C36.7676 12.1172 37.4765 12.4225 38.3969 12.4225C38.9364 12.4225 39.4125 12.2856 39.8357 12.0014V12.0119ZM48.8706 13.5489C48.6696 13.5384 48.3945 13.5279 48.0771 13.5279H43.4116V13.5068C43.602 13.3805 43.7713 13.1489 43.9088 12.812C44.0463 12.4856 44.1204 12.0645 44.1204 11.5697V6.34811C44.1204 5.86384 44.0463 5.4638 43.9088 5.13745C43.7713 4.81109 43.602 4.59002 43.4116 4.46369V4.44263H46.6277V4.46369C46.4373 4.59002 46.268 4.82162 46.1305 5.1585C45.993 5.48485 45.9189 5.90595 45.9189 6.40075V12.2225H47.2202C47.8021 12.2225 48.3099 12.1277 48.7542 11.9277C49.1985 11.7277 49.5688 11.4329 49.8439 11.0434H49.8651L49.5265 13.6331C49.2938 13.591 49.0716 13.5594 48.86 13.5489H48.8706ZM50.1613 13.5068C50.3517 13.3805 50.521 13.1489 50.6585 12.812C50.796 12.4856 50.8701 12.0645 50.8701 11.5697V6.40075C50.8701 5.94806 50.7961 5.53749 50.6479 5.17956C50.4998 4.82162 50.3411 4.57949 50.1507 4.46369V4.44263H53.9593C54.8797 4.44263 55.6838 4.6216 56.3714 4.99006C57.0591 5.348 57.5881 5.87437 57.9689 6.55866C58.3498 7.24295 58.5297 8.05356 58.5297 8.99051C58.5297 10.4433 58.1276 11.5697 57.3342 12.3593C56.5407 13.1489 55.3452 13.5384 53.7477 13.5384H50.1401V13.5173L50.1613 13.5068ZM53.8958 12.233C54.7739 12.233 55.4404 11.9487 55.9059 11.3908C56.3714 10.8328 56.6042 10.0222 56.6042 8.96946C56.6042 7.86407 56.3714 7.04292 55.9165 6.51655C55.4616 5.99017 54.7634 5.72699 53.8218 5.72699H52.6686V12.233H53.8958ZM65.4275 11.0328L65.0572 13.6331C64.8139 13.591 64.5811 13.5594 64.359 13.5489C64.1368 13.5384 63.83 13.5279 63.4597 13.5279H58.8153V13.5068C59.0057 13.3805 59.175 13.1489 59.3125 12.812C59.4501 12.4856 59.5241 12.0645 59.5241 11.5697V6.40075C59.5241 5.89543 59.4501 5.47433 59.3125 5.14797C59.175 4.82162 59.0057 4.59002 58.8153 4.46369V4.44263H63.5338C64.1579 4.44263 64.6234 4.41105 64.9302 4.33736L65.1524 6.67446H65.1313C64.9726 6.36916 64.7187 6.12703 64.3695 5.95859C64.0204 5.80068 63.5867 5.71646 63.0683 5.71646H61.3332V8.02198H62.3277C62.8778 8.02198 63.2904 8.02198 63.5549 8.00093C63.8194 7.97987 64.0945 7.95882 64.3801 7.92723L63.9993 10.1275H63.9781C63.8723 9.84324 63.703 9.63269 63.4703 9.49583C63.2375 9.3695 62.9307 9.29581 62.5499 9.29581H61.3438V12.2435H62.772C63.3539 12.2435 63.8617 12.1382 64.3166 11.9277C64.7716 11.7171 65.1313 11.4118 65.4169 11.0118H65.4381L65.4275 11.0328ZM74.1979 12.5699C74.5258 12.8857 74.8115 13.1383 75.076 13.3068V13.3278L72.3253 13.8121C72.3253 13.6331 72.2618 13.4121 72.1243 13.1383C71.9868 12.8646 71.7752 12.5067 71.5001 12.0751L70.1565 10.0117L68.7071 12.3488C68.5273 12.633 68.4426 12.8857 68.4426 13.0962C68.4426 13.2752 68.5061 13.4015 68.6225 13.5068V13.5279H65.5227V13.5068C65.7555 13.4015 66.0094 13.2015 66.3056 12.8962C66.6018 12.5909 66.8769 12.233 67.1519 11.8224L69.1938 8.69574L67.1202 5.61118C66.9404 5.33747 66.7605 5.11639 66.5807 4.94795C66.4008 4.77951 66.1892 4.6216 65.9353 4.47421V4.45316H69.0033V4.47421C68.9822 4.57949 68.9822 4.65318 68.9822 4.69529C68.9822 4.84268 69.0139 5.00059 69.0774 5.14797C69.1409 5.30589 69.2361 5.49538 69.3631 5.70593L70.3575 7.36928L71.2885 5.7691C71.4155 5.53749 71.5213 5.348 71.5742 5.21114C71.6376 5.07428 71.6694 4.93742 71.6694 4.82162C71.6694 4.70582 71.6376 4.57949 71.5742 4.46369V4.44263H74.4624V4.46369C74.2508 4.53738 74.018 4.71635 73.7535 4.99006C73.4891 5.26378 73.2246 5.61118 72.9495 6.05334L71.3308 8.69574L73.2669 11.4645C73.5525 11.8856 73.8593 12.254 74.1873 12.5699H74.1979Z" fill="url(#paint0_linear_4410_205785)"/>
    <path d="M22.4323 2.73709V17.2229C22.4323 19.5179 21.2897 21.655 19.3642 22.9288L17.4493 24.2027L18.1158 21.9814L18.4332 21.7708C20.0307 20.697 20.9829 18.9179 20.9829 16.9913V4.232L13.2916 4.69521L15.2699 3.17925L22.4428 2.72656L22.4323 2.73709ZM17.0261 14.8121H16.2856C17.534 15.2227 18.01 16.7702 18.01 16.7702C19.7768 15.8544 18.7506 14.1805 18.7506 14.1805C18.2957 14.8227 17.0261 14.8121 17.0261 14.8121ZM11.6729 27.4451L4.02394 22.9394C2.0879 21.655 0.945312 19.5179 0.945312 17.2229V2.75814L7.54691 3.17925L9.55702 4.64257L2.3947 4.22147V17.1492C2.3947 18.981 3.30454 20.6865 4.83856 21.7076L11.419 25.5818C11.5989 25.487 16.9944 22.5604 12.2759 17.8335C12.2759 17.8335 14.5294 20.8128 11.1863 23.3815C11.1863 23.3815 10.4774 21.276 7.87488 19.9601C4.34133 18.1809 3.34686 16.3281 5.10305 12.3487C5.10305 12.3487 4.88088 15.1069 6.30911 16.307C8.36154 18.023 9.9802 17.8546 10.615 19.181C10.5726 18.7494 10.6996 17.7704 8.48849 16.2755C6.37259 14.8648 5.34638 10.3274 8.82703 7.08495C8.82703 7.08495 5.05015 7.99031 3.89699 12.1803C3.89699 12.1803 3.2728 7.76924 6.79577 6.08484C10.2024 4.45307 11.5565 7.34814 11.5565 7.34814L11.5777 7.2955C12.1913 6.05325 13.1223 5.20053 14.8362 5.20053L17.4916 7.51658L16.8251 8.30614C16.9521 8.39036 20.274 11.696 20.274 11.696H18.5496L19.5758 12.6329L18.0206 13.6962C18.0206 13.6962 15.5238 13.9805 15.5238 12.3908L16.7828 11.5802L13.5984 10.8327C13.5984 10.8327 11.9162 10.6643 11.9162 8.30614C11.9162 8.30614 9.76861 10.8222 11.0381 13.9173C11.0381 13.9173 8.59428 12.254 9.74745 8.83251C9.74745 8.83251 7.52575 12.1908 9.70513 14.4226C11.6729 16.4439 13.5455 16.6755 14.9208 18.7915C14.9208 18.7915 14.5823 17.1282 13.1858 15.6964C11.7893 14.2752 11.6623 12.7593 11.7152 11.8539C11.7152 11.9381 11.747 13.033 15.0478 15.3596C18.1264 17.8441 18.5178 24.2869 11.7152 27.4241L11.6729 27.4451ZM14.0639 8.57985C14.0639 8.57985 14.413 9.72735 16.1586 9.72735L17.1425 10.0958L16.0105 9.0957V8.59038H14.0639V8.57985Z" fill="url(#paint1_linear_4410_205785)"/>
    <path d="M27.066 24.0869C26.3678 23.6764 25.8282 23.1184 25.4474 22.4131C25.0665 21.6972 24.8866 20.8971 24.8866 20.0128C24.8866 19.0443 25.0877 18.2021 25.5003 17.4757C25.9129 16.7493 26.4841 16.1913 27.2247 15.8123C27.9653 15.4228 28.8328 15.2333 29.8273 15.2333C30.6207 15.2333 31.393 15.3386 32.1442 15.5597L32.3558 17.8231H32.3346C32.0701 17.4336 31.721 17.1283 31.2767 16.9177C30.8323 16.7072 30.3457 16.6019 29.8273 16.6019C28.9069 16.6019 28.1769 16.8967 27.6479 17.4862C27.1189 18.0757 26.8544 18.8758 26.8544 19.8865C26.8544 20.8971 27.0978 21.7393 27.5844 22.371C28.0711 23.0026 28.7587 23.3079 29.658 23.3079C30.3351 23.3079 30.9064 23.1816 31.3719 22.9394C31.8374 22.6868 32.25 22.3288 32.6203 21.8446H32.6414L32.324 24.2027C31.3825 24.5291 30.4409 24.6975 29.5205 24.6975C28.6 24.6975 27.7748 24.4975 27.0766 24.0869H27.066ZM41.2849 23.6448C41.5282 24.0343 41.7504 24.308 41.9514 24.4765V24.4975H38.9785V24.4765C39.1161 24.3712 39.1901 24.1712 39.1901 23.8764C39.1901 23.5921 39.1161 23.2658 38.9785 22.8657L38.8622 22.5499H35.4661L35.3498 22.8657C35.2122 23.2237 35.1382 23.55 35.1382 23.8553C35.1382 24.1606 35.2016 24.3607 35.318 24.4659V24.487H32.5568V24.4659C32.7578 24.287 32.98 24.0132 33.2233 23.6237C33.4666 23.2447 33.6676 22.8131 33.8369 22.3394L35.72 16.9493C35.7941 16.7177 35.8364 16.4966 35.8364 16.3071C35.8364 16.1176 35.8047 15.9281 35.7306 15.7702C35.6566 15.6123 35.5719 15.4965 35.4767 15.4123V15.3912H38.9574V15.4123C38.8622 15.4965 38.7775 15.6228 38.7035 15.7702C38.6294 15.9281 38.5977 16.0966 38.5977 16.2966C38.5977 16.4966 38.64 16.7072 38.714 16.9388L40.6501 22.3288C40.8194 22.8026 41.0204 23.2342 41.2637 23.6132L41.2849 23.6448ZM36.8732 18.4126C36.7568 18.8127 36.5981 19.2969 36.3866 19.8865L35.8999 21.2761H38.4284L37.9417 19.8865C37.7196 19.2548 37.5609 18.76 37.4445 18.381C37.3281 18.002 37.2435 17.5915 37.18 17.1493H37.1271C37.0742 17.5915 36.9896 18.0126 36.8732 18.4126ZM43.0939 24.5607C42.639 24.4659 42.2793 24.3396 41.9937 24.1712L41.7715 21.9709H41.7927C42.163 22.4447 42.5544 22.8026 42.9776 23.0131C43.4008 23.2237 43.8768 23.329 44.4058 23.329C45.4955 23.329 46.035 22.9394 46.035 22.1499C46.035 21.8656 45.961 21.634 45.8129 21.434C45.6648 21.234 45.4743 21.0761 45.2522 20.9603C45.03 20.8339 44.7232 20.6971 44.3423 20.5392C43.8239 20.3286 43.4113 20.1286 43.0834 19.9286C42.766 19.7286 42.4909 19.4548 42.2582 19.0969C42.0254 18.739 41.9196 18.2758 41.9196 17.7073C41.9196 17.2651 42.0466 16.8545 42.2899 16.4756C42.5438 16.0966 42.9035 15.7913 43.3796 15.5702C43.8557 15.3386 44.4164 15.2333 45.0723 15.2333C45.7282 15.2333 46.4265 15.3281 47.1353 15.507L47.3046 17.6546H47.2834C47.0189 17.2546 46.7121 16.9703 46.3736 16.8124C46.0245 16.6545 45.6436 16.5808 45.2098 16.5808C44.2048 16.5808 43.697 16.9177 43.697 17.5915C43.697 17.8231 43.7605 18.0231 43.898 18.1915C44.0355 18.36 44.2048 18.4968 44.4058 18.6021C44.6068 18.7074 44.903 18.8442 45.2839 19.0022C45.8235 19.2232 46.2572 19.4338 46.5958 19.6443C46.9343 19.8549 47.2305 20.1497 47.4739 20.5392C47.7172 20.9182 47.8441 21.4235 47.8441 22.0341C47.8441 22.5394 47.7172 22.9921 47.4739 23.3921C47.2199 23.7922 46.8497 24.108 46.3524 24.3501C45.8552 24.5817 45.2522 24.7081 44.5433 24.7081C44.0249 24.7081 43.5383 24.666 43.0939 24.5712V24.5607ZM48.7328 24.4765C48.9232 24.3501 49.0925 24.1185 49.23 23.7816C49.3676 23.4553 49.4416 23.0342 49.4416 22.5394V17.3704C49.4416 16.8651 49.3676 16.444 49.23 16.1176C49.0925 15.7913 48.9232 15.5597 48.7328 15.4333V15.4123H51.9701V15.4333C51.7797 15.5597 51.6104 15.7913 51.4729 16.1281C51.3354 16.465 51.2613 16.8756 51.2613 17.3704V22.5394C51.2613 23.0447 51.3354 23.4658 51.4729 23.7922C51.6104 24.1185 51.7797 24.3501 51.9701 24.4765V24.4975H48.7328V24.4765ZM53.1445 24.4765C53.3349 24.3501 53.5042 24.1185 53.6417 23.7816C53.7792 23.4553 53.8533 23.0342 53.8533 22.5394V17.3072C53.8533 16.9282 53.7898 16.5598 53.6734 16.2018C53.5465 15.8439 53.3772 15.5912 53.1445 15.4333V15.4123H56.1279C56.149 15.5597 56.1914 15.7281 56.2548 15.9071C56.3289 16.086 56.4558 16.3387 56.6674 16.6756L58.5612 19.8444C58.9314 20.4655 59.3335 21.3287 59.7672 22.4341H59.8201C59.6826 21.6446 59.6085 20.7392 59.6085 19.7391V17.3809C59.6085 16.8756 59.5451 16.4545 59.4181 16.1281C59.2911 15.8018 59.1325 15.5702 58.942 15.4439V15.4228H61.9783V15.4439C61.7879 15.5702 61.6186 15.7913 61.4811 16.1281C61.3436 16.465 61.2695 16.8756 61.2695 17.3809V22.5499C61.2695 23.0447 61.3436 23.4658 61.4811 23.8027C61.6186 24.1396 61.7879 24.3712 61.9783 24.487V24.508H59.2065C59.0478 24.1291 58.8256 23.7185 58.5506 23.2658L56.6992 20.2655C56.3924 19.7707 56.1385 19.2969 55.9374 18.8548C55.7364 18.4126 55.5354 17.8862 55.3344 17.2756H55.2815C55.3767 17.8441 55.4402 18.3495 55.472 18.8021C55.5037 19.2548 55.5143 19.7601 55.5143 20.3076V22.5289C55.5143 23.0342 55.5777 23.4553 55.7047 23.7816C55.8316 24.1185 55.9903 24.3396 56.1808 24.4659V24.487H53.1445V24.4659V24.4765ZM64.5915 24.1501C63.8826 23.7395 63.3431 23.1816 62.9728 22.4657C62.6025 21.7498 62.4121 20.9392 62.4121 20.0444C62.4121 19.0653 62.6025 18.2126 62.994 17.4757C63.3854 16.7387 63.9461 16.1703 64.6867 15.7597C65.4272 15.3491 66.2948 15.1491 67.2892 15.1491C68.2202 15.1491 69.0349 15.3491 69.7437 15.7386C70.4525 16.1281 71.0026 16.6861 71.3941 17.402C71.7855 18.1178 71.9759 18.939 71.9759 19.8654C71.9759 20.7918 71.7749 21.6761 71.3623 22.4236C70.9497 23.171 70.3784 23.7501 69.6379 24.1606C68.8973 24.5712 68.0404 24.7712 67.0776 24.7712C66.1149 24.7712 65.2897 24.5712 64.5809 24.1606L64.5915 24.1501ZM68.6646 22.9816C69.0877 22.6973 69.4263 22.3078 69.659 21.7814C69.9024 21.2656 70.0187 20.6655 70.0187 19.9812C70.0187 18.8864 69.7648 18.0231 69.257 17.4125C68.7492 16.8019 68.051 16.4966 67.1517 16.4966C66.5804 16.4966 66.0832 16.6335 65.6706 16.9177C65.2474 17.202 64.93 17.602 64.7078 18.1073C64.4857 18.6126 64.3693 19.2127 64.3693 19.897C64.3693 20.9919 64.6126 21.8446 65.1099 22.4657C65.5965 23.0868 66.3053 23.3921 67.2258 23.3921C67.7653 23.3921 68.2414 23.2553 68.6646 22.971V22.9816ZM11.6729 0.168457C11.3026 1.4107 10.3187 2.38976 9.07031 2.75822C10.3187 3.12668 11.3026 4.10574 11.6729 5.34799C12.0431 4.10574 13.027 3.12668 14.2754 2.75822C13.027 2.38976 12.0431 1.4107 11.6729 0.168457Z" fill="white"/>
  </g>
  <defs>
    <linearGradient id="paint0_linear_4410_205785" x1="49.9867" y1="13.8121" x2="49.9867" y2="4.17944" gradientUnits="userSpaceOnUse">
      <stop stop-color="#CEA236"/>
      <stop offset="1" stop-color="#FFECA7"/>
    </linearGradient>
    <linearGradient id="paint1_linear_4410_205785" x1="11.6941" y1="27.4451" x2="11.6941" y2="2.72656" gradientUnits="userSpaceOnUse">
      <stop stop-color="#CEA236"/>
      <stop offset="1" stop-color="#FFECA7"/>
    </linearGradient>
    <clipPath id="clip0_4410_205785">
      <rect width="76" height="28" fill="white"/>
    </clipPath>
  </defs>
</svg>
